<svg xmlns="http://www.w3.org/2000/svg" viewBox="0 0 800 440" font-family="system-ui, -apple-system, sans-serif">
  <defs>
    <filter id="glow" x="-50%" y="-50%" width="200%" height="200%">
      <feGaussianBlur stdDeviation="4" result="blur"/>
      <feMerge>
        <feMergeNode in="blur"/>
        <feMergeNode in="SourceGraphic"/>
      </feMerge>
    </filter>
    <filter id="dotGlow" x="-100%" y="-100%" width="300%" height="300%">
      <feGaussianBlur stdDeviation="2" result="blur"/>
      <feMerge>
        <feMergeNode in="blur"/>
        <feMergeNode in="SourceGraphic"/>
      </feMerge>
    </filter>
    <filter id="pressure" x="-50%" y="-50%" width="200%" height="200%">
      <feGaussianBlur stdDeviation="8" result="blur"/>
      <feMerge>
        <feMergeNode in="blur"/>
        <feMergeNode in="SourceGraphic"/>
      </feMerge>
    </filter>
  </defs>

  <!-- Background -->
  <rect width="800" height="440" fill="#0f1119" rx="12"/>

  <!-- Subtle center divider -->
  <line x1="400" y1="55" x2="400" y2="395" stroke="#1a1d2a" stroke-width="1"/>

  <!-- ==================== LEFT SIDE: OLD WORLD ==================== -->

  <text x="195" y="50" text-anchor="middle" font-size="18" font-weight="600" fill="#6b7280" letter-spacing="0.05em">today</text>

  <!-- Pressure halo behind upstream -->
  <circle cx="195" cy="122" r="40" fill="none" stroke="#374151" stroke-width="1" opacity="0.2" filter="url(#pressure)"/>

  <!-- Central upstream node -->
  <circle cx="195" cy="122" r="28" fill="#1a1d2a" stroke="#6b7280" stroke-width="3"/>
  <text x="195" y="119" text-anchor="middle" font-size="9.5" font-weight="700" fill="#9ca3af" letter-spacing="0.04em">upstream</text>
  <text x="195" y="131" text-anchor="middle" font-size="7.5" fill="#4b5563">maintainer</text>

  <!-- "wait" badge -->
  <g transform="translate(228, 99)">
    <rect x="0" y="0" width="30" height="15" rx="3" fill="#1a1d2a" stroke="#374151" stroke-width="0.8"/>
    <text x="15" y="11" text-anchor="middle" font-size="7.5" fill="#4b5563" font-style="italic">wait</text>
  </g>

  <!-- Fork positions:
    A: 85, 200   → upstream ~173, 140
    B: 110, 255  → upstream ~178, 143
    C: 155, 290  → upstream ~189, 150
    D: 195, 305  → upstream  195, 150
    E: 235, 290  → upstream ~201, 150
    F: 280, 255  → upstream ~212, 143
    G: 305, 200  → upstream ~217, 140
  -->

  <!-- Lines from forks to upstream -->
  <g stroke="#374151" fill="none" stroke-width="1.2">
    <line x1="85"  y1="200" x2="173" y2="140"/>
    <line x1="110" y1="255" x2="178" y2="143"/>
    <line x1="155" y1="290" x2="189" y2="150"/>
    <line x1="195" y1="305" x2="195" y2="150"/>
    <line x1="235" y1="290" x2="201" y2="150"/>
    <line x1="280" y1="255" x2="212" y2="143"/>
    <line x1="305" y1="200" x2="217" y2="140"/>
  </g>

  <!-- Chevrons pointing toward upstream
       Each chevron: two lines forming a V that opens away from upstream.
       Placed at ~35% from fork toward upstream.
       Computed: for a line from (fx,fy) to (ux,uy),
       point = (fx + 0.35*(ux-fx), fy + 0.35*(uy-fy))
       direction = normalize(ux-fx, uy-fy)
       perpendicular = (-dy, dx)
       chevron tip = point, wings = point - 5*dir +/- 4*perp
  -->
  <g stroke="#505868" stroke-width="1.5" fill="none" stroke-linecap="round" stroke-linejoin="round">
    <!-- A: fork(85,200)→up(173,140). vec=(88,-60), len=106.5, dir=(0.826,-0.564), perp=(0.564,0.826)
         35% point: (85+30.8, 200-21) = (115.8, 179)
         tip = (115.8, 179)
         wing1 = (115.8 - 5*0.826 + 4*0.564, 179 - 5*(-0.564) + 4*0.826) = (115.8-4.13+2.26, 179+2.82+3.30) = (113.9, 185.1)
         wing2 = (115.8 - 5*0.826 - 4*0.564, 179 - 5*(-0.564) - 4*0.826) = (115.8-4.13-2.26, 179+2.82-3.30) = (109.4, 178.5)
    -->
    <path d="M114,185 L116,179 L109,179"/>

    <!-- B: fork(110,255)→up(178,143). vec=(68,-112), len=131, dir=(0.519,-0.855), perp=(0.855,0.519)
         35% point: (110+23.8, 255-39.2) = (133.8, 215.8)
         tip = (134, 216)
         wing1 = (134 - 5*0.519 + 4*0.855, 216 - 5*(-0.855) + 4*0.519) = (134-2.6+3.4, 216+4.3+2.1) = (134.8, 222.4)
         wing2 = (134 - 5*0.519 - 4*0.855, 216 - 5*(-0.855) - 4*0.519) = (134-2.6-3.4, 216+4.3-2.1) = (128, 218.2)
    -->
    <path d="M135,222 L134,216 L128,218"/>

    <!-- C: fork(155,290)→up(189,150). vec=(34,-140), len=144, dir=(0.236,-0.972), perp=(0.972,0.236)
         35% point: (155+11.9, 290-49) = (166.9, 241)
         tip = (167, 241)
         wing1 = (167 - 5*0.236 + 4*0.972, 241 - 5*(-0.972) + 4*0.236) = (167-1.2+3.9, 241+4.9+0.9) = (169.7, 246.8)
         wing2 = (167 - 5*0.236 - 4*0.972, 241 - 5*(-0.972) - 4*0.236) = (167-1.2-3.9, 241+4.9-0.9) = (161.9, 245)
    -->
    <path d="M170,247 L167,241 L162,245"/>

    <!-- D: fork(195,305)→up(195,150). vec=(0,-155), dir=(0,-1), perp=(1,0)
         35% point: (195, 305-54.25) = (195, 250.75)
         tip = (195, 251)
         wing1 = (195 - 0 + 4, 251 + 5 + 0) = (199, 256)
         wing2 = (195 - 0 - 4, 251 + 5 - 0) = (191, 256)
    -->
    <path d="M199,256 L195,251 L191,256"/>

    <!-- E: fork(235,290)→up(201,150). vec=(-34,-140), dir=(-0.236,-0.972), perp=(0.972,-0.236)
         35% point: (235-11.9, 290-49) = (223.1, 241)
         tip = (223, 241)
         wing1 = (223 + 5*0.236 + 4*0.972, 241 + 5*0.972 - 4*0.236) = (223+1.2+3.9, 241+4.9-0.9) = (228.1, 245)
         wing2 = (223 + 5*0.236 - 4*0.972, 241 + 5*0.972 + 4*0.236) = (223+1.2-3.9, 241+4.9+0.9) = (220.3, 246.8)
    -->
    <path d="M228,245 L223,241 L220,247"/>

    <!-- F: fork(280,255)→up(212,143). vec=(-68,-112), dir=(-0.519,-0.855), perp=(0.855,-0.519)
         35% point: (280-23.8, 255-39.2) = (256.2, 215.8)
         tip = (256, 216)
         wing1 = (256 + 5*0.519 + 4*0.855, 216 + 5*0.855 - 4*0.519) = (256+2.6+3.4, 216+4.3-2.1) = (262, 218.2)
         wing2 = (256 + 5*0.519 - 4*0.855, 216 + 5*0.855 + 4*0.519) = (256+2.6-3.4, 216+4.3+2.1) = (255.2, 222.4)
    -->
    <path d="M262,218 L256,216 L255,222"/>

    <!-- G: fork(305,200)→up(217,140). vec=(-88,-60), dir=(-0.826,-0.564), perp=(0.564,-0.826)
         35% point: (305-30.8, 200-21) = (274.2, 179)
         tip = (274, 179)
         wing1 = (274 + 5*0.826 + 4*0.564, 179 + 5*0.564 - 4*0.826) = (274+4.1+2.3, 179+2.8-3.3) = (280.4, 178.5)
         wing2 = (274 + 5*0.826 - 4*0.564, 179 + 5*0.564 + 4*0.826) = (274+4.1-2.3, 179+2.8+3.3) = (275.8, 185.1)
    -->
    <path d="M280,179 L274,179 L276,185"/>
  </g>

  <!-- Fork nodes -->
  <g>
    <circle cx="85"  cy="208" r="12" fill="#1a1d2a" stroke="#4b5563" stroke-width="1.3"/>
    <text x="85" y="211" text-anchor="middle" font-size="7.5" fill="#6b7280">fork</text>

    <circle cx="110" cy="263" r="12" fill="#1a1d2a" stroke="#4b5563" stroke-width="1.3"/>
    <text x="110" y="266" text-anchor="middle" font-size="7.5" fill="#6b7280">fork</text>

    <circle cx="155" cy="298" r="12" fill="#1a1d2a" stroke="#4b5563" stroke-width="1.3"/>
    <text x="155" y="301" text-anchor="middle" font-size="7.5" fill="#6b7280">fork</text>

    <circle cx="195" cy="313" r="12" fill="#1a1d2a" stroke="#4b5563" stroke-width="1.3"/>
    <text x="195" y="316" text-anchor="middle" font-size="7.5" fill="#6b7280">fork</text>

    <circle cx="235" cy="298" r="12" fill="#1a1d2a" stroke="#4b5563" stroke-width="1.3"/>
    <text x="235" y="301" text-anchor="middle" font-size="7.5" fill="#6b7280">fork</text>

    <circle cx="280" cy="263" r="12" fill="#1a1d2a" stroke="#4b5563" stroke-width="1.3"/>
    <text x="280" y="266" text-anchor="middle" font-size="7.5" fill="#6b7280">fork</text>

    <circle cx="305" cy="208" r="12" fill="#1a1d2a" stroke="#4b5563" stroke-width="1.3"/>
    <text x="305" y="211" text-anchor="middle" font-size="7.5" fill="#6b7280">fork</text>
  </g>

  <!-- Stale/abandoned forks -->
  <g opacity="0.4">
    <line x1="55" y1="168" x2="172" y2="134" stroke="#252836" stroke-width="0.7" stroke-dasharray="3,4"/>
    <circle cx="47" cy="170" r="7" fill="none" stroke="#252836" stroke-width="1" stroke-dasharray="3,3"/>

    <line x1="340" y1="173" x2="218" y2="134" stroke="#252836" stroke-width="0.7" stroke-dasharray="3,4"/>
    <circle cx="348" cy="175" r="7" fill="none" stroke="#252836" stroke-width="1" stroke-dasharray="3,3"/>

    <line x1="280" y1="340" x2="201" y2="150" stroke="#252836" stroke-width="0.7" stroke-dasharray="3,4"/>
    <circle cx="285" cy="345" r="7" fill="none" stroke="#252836" stroke-width="1" stroke-dasharray="3,3"/>
  </g>

  <!-- Labels -->
  <text x="125" y="168" text-anchor="middle" font-size="8.5" fill="#4b5563" font-style="italic">PR</text>
  <text x="268" y="168" text-anchor="middle" font-size="8.5" fill="#4b5563" font-style="italic">PR</text>
  <text x="215" y="232" text-anchor="middle" font-size="8.5" fill="#4b5563" font-style="italic">issue</text>
  <text x="90" y="240" text-anchor="middle" font-size="8.5" fill="#4b5563" font-style="italic">PR</text>

  <!-- Left caption -->
  <text x="195" y="392" text-anchor="middle" font-size="10.5" fill="#4b5563">clone · file issues · fork · merge PRs · wait for releases</text>

  <!-- ==================== EVOLUTION ARROW ==================== -->
  <g transform="translate(400, 220)">
    <circle r="16" fill="#141722" stroke="#252836" stroke-width="1"/>
    <path d="M-5.5 0 L4.5 0 M1.5 -3.5 L5.5 0 L1.5 3.5" stroke="#4b5563" stroke-width="1.5" stroke-linecap="round" stroke-linejoin="round" fill="none"/>
  </g>

  <!-- ==================== RIGHT SIDE: NEW WORLD ==================== -->

  <text x="600" y="50" text-anchor="middle" font-size="18" font-weight="600" fill="#059669" letter-spacing="0.05em">with vit</text>

  <!-- Mesh connections (slightly increased opacity for density) -->
  <g stroke="#06D6A0" stroke-width="0.8" opacity="0.25">
    <line x1="505" y1="120" x2="618" y2="95"/>
    <line x1="618" y1="95" x2="710" y2="130"/>
    <line x1="505" y1="120" x2="465" y2="210"/>
    <line x1="505" y1="120" x2="575" y2="200"/>
    <line x1="618" y1="95" x2="575" y2="200"/>
    <line x1="618" y1="95" x2="685" y2="195"/>
    <line x1="710" y1="130" x2="685" y2="195"/>
    <line x1="710" y1="130" x2="740" y2="260"/>
    <line x1="465" y1="210" x2="575" y2="200"/>
    <line x1="575" y1="200" x2="685" y2="195"/>
    <line x1="685" y1="195" x2="740" y2="260"/>
    <line x1="465" y1="210" x2="500" y2="305"/>
    <line x1="575" y1="200" x2="500" y2="305"/>
    <line x1="575" y1="200" x2="620" y2="315"/>
    <line x1="685" y1="195" x2="620" y2="315"/>
    <line x1="685" y1="195" x2="715" y2="300"/>
    <line x1="740" y1="260" x2="715" y2="300"/>
    <line x1="500" y1="305" x2="620" y2="315"/>
    <line x1="620" y1="315" x2="715" y2="300"/>
    <line x1="505" y1="120" x2="685" y2="195"/>
    <line x1="710" y1="130" x2="620" y2="315"/>
    <line x1="465" y1="210" x2="620" y2="315"/>
    <line x1="740" y1="260" x2="620" y2="315"/>
  </g>

  <!-- Capability dots -->
  <g>
    <circle cx="558" cy="109" r="2.5" fill="#06D6A0" opacity="0.8" filter="url(#dotGlow)"/>
    <circle cx="668" cy="110" r="2" fill="#34D399" opacity="0.7" filter="url(#dotGlow)"/>
    <circle cx="488" cy="162" r="2.5" fill="#06D6A0" opacity="0.7" filter="url(#dotGlow)"/>
    <circle cx="545" cy="155" r="2" fill="#34D399" opacity="0.75" filter="url(#dotGlow)"/>
    <circle cx="648" cy="148" r="2.5" fill="#06D6A0" opacity="0.65" filter="url(#dotGlow)"/>
    <circle cx="700" cy="162" r="2" fill="#34D399" opacity="0.7" filter="url(#dotGlow)"/>
    <circle cx="525" cy="205" r="2.5" fill="#06D6A0" opacity="0.75" filter="url(#dotGlow)"/>
    <circle cx="632" cy="197" r="2" fill="#34D399" opacity="0.8" filter="url(#dotGlow)"/>
    <circle cx="718" cy="228" r="2.5" fill="#06D6A0" opacity="0.7" filter="url(#dotGlow)"/>
    <circle cx="485" cy="258" r="2" fill="#34D399" opacity="0.65" filter="url(#dotGlow)"/>
    <circle cx="543" cy="252" r="2.5" fill="#06D6A0" opacity="0.75" filter="url(#dotGlow)"/>
    <circle cx="655" cy="258" r="2" fill="#34D399" opacity="0.7" filter="url(#dotGlow)"/>
    <circle cx="728" cy="280" r="2.5" fill="#06D6A0" opacity="0.8" filter="url(#dotGlow)"/>
    <circle cx="560" cy="310" r="2" fill="#34D399" opacity="0.7" filter="url(#dotGlow)"/>
    <circle cx="670" cy="307" r="2.5" fill="#06D6A0" opacity="0.75" filter="url(#dotGlow)"/>
    <circle cx="600" cy="148" r="2" fill="#06D6A0" opacity="0.5" filter="url(#dotGlow)"/>
  </g>

  <!-- Mesh nodes -->
  <g>
    <circle cx="505" cy="120" r="13" fill="#0a2a1f" stroke="#06D6A0" stroke-width="1.5" filter="url(#glow)"/>
    <circle cx="618" cy="95"  r="13" fill="#0a2a1f" stroke="#06D6A0" stroke-width="1.5" filter="url(#glow)"/>
    <circle cx="710" cy="130" r="13" fill="#0a2a1f" stroke="#06D6A0" stroke-width="1.5" filter="url(#glow)"/>
    <circle cx="465" cy="210" r="13" fill="#0a2a1f" stroke="#06D6A0" stroke-width="1.5" filter="url(#glow)"/>
    <circle cx="575" cy="200" r="13" fill="#0a2a1f" stroke="#06D6A0" stroke-width="1.5" filter="url(#glow)"/>
    <circle cx="685" cy="195" r="13" fill="#0a2a1f" stroke="#06D6A0" stroke-width="1.5" filter="url(#glow)"/>
    <circle cx="740" cy="260" r="13" fill="#0a2a1f" stroke="#06D6A0" stroke-width="1.5" filter="url(#glow)"/>
    <circle cx="500" cy="305" r="13" fill="#0a2a1f" stroke="#06D6A0" stroke-width="1.5" filter="url(#glow)"/>
    <circle cx="620" cy="315" r="13" fill="#0a2a1f" stroke="#06D6A0" stroke-width="1.5" filter="url(#glow)"/>
    <circle cx="715" cy="300" r="13" fill="#0a2a1f" stroke="#06D6A0" stroke-width="1.5" filter="url(#glow)"/>
  </g>

  <!-- Inner alive dots -->
  <g fill="#06D6A0" opacity="0.45">
    <circle cx="505" cy="120" r="3.5"/>
    <circle cx="618" cy="95"  r="3.5"/>
    <circle cx="710" cy="130" r="3.5"/>
    <circle cx="465" cy="210" r="3.5"/>
    <circle cx="575" cy="200" r="3.5"/>
    <circle cx="685" cy="195" r="3.5"/>
    <circle cx="740" cy="260" r="3.5"/>
    <circle cx="500" cy="305" r="3.5"/>
    <circle cx="620" cy="315" r="3.5"/>
    <circle cx="715" cy="300" r="3.5"/>
  </g>

  <!-- Right caption -->
  <text x="600" y="392" text-anchor="middle" font-size="10.5" fill="#059669">capabilities flow · every repo lives · no upstream</text>

  <!-- VIT MARK -->
  <g transform="translate(758, 406) scale(0.65)" opacity="0.35">
    <circle cx="16" cy="5.5" r="3" fill="#06D6A0"/>
    <path d="M5.5 10 L16 26 L26.5 10" stroke="#06D6A0" stroke-width="3.5" stroke-linecap="round" stroke-linejoin="round" fill="none"/>
  </g>
</svg>